<?xml version="1.0" encoding="iso-8859-1"?>
<!-- Generator: Adobe Illustrator 19.0.0, SVG Export Plug-In . SVG Version: 6.00 Build 0)  -->
<svg version="1.1" id="Capa_1" xmlns="http://www.w3.org/2000/svg" xmlns:xlink="http://www.w3.org/1999/xlink" x="0px" y="0px"
	 viewBox="0 0 511.999 511.999" style="enable-background:new 0 0 511.999 511.999;" xml:space="preserve">
<path style="fill:#76C9D2;" d="M483.563,113.839H327.634v41.874h155.929c11.563,0,20.937-9.374,20.937-20.937l0,0
	C504.5,123.213,495.126,113.839,483.563,113.839z"/>
<path style="opacity:0.2;enable-background:new    ;" d="M483.563,113.839H327.634v41.874h155.929
	c11.563,0,20.937-9.374,20.937-20.937l0,0C504.5,123.213,495.126,113.839,483.563,113.839z"/>
<path style="fill:#C7884B;" d="M113.885,496.537H87.471c-4.248,0-7.691-3.443-7.691-7.691v-20.217
	c0-32.822,18.098-62.601,47.232-77.717l15.707,30.272c-17.786,9.229-28.834,27.409-28.834,47.446
	C113.885,468.63,113.885,496.537,113.885,496.537z"/>
<path style="fill:#FFD4B8;" d="M79.78,468.629v20.217c0,4.248,3.443,7.691,7.691,7.691h26.413v-27.908H79.78z"/>
<path style="fill:#C7884B;" d="M323.032,496.537h26.413c4.248,0,7.691-3.443,7.691-7.691v-20.217
	c0-32.822-18.098-62.601-47.232-77.717l-15.707,30.272c17.786,9.229,28.835,27.409,28.835,47.446V496.537z"/>
<path style="fill:#FFD4B8;" d="M357.137,468.629v20.217c0,4.248-3.443,7.691-7.691,7.691h-26.413v-27.908H357.137z"/>
<path style="fill:#FBAB5F;" d="M218.459,321.796L218.459,321.796c-57.875,0-104.792,46.917-104.792,104.792v69.949H323.25v-69.949
	C323.25,368.713,276.333,321.796,218.459,321.796z"/>
<circle style="fill:#FFFFFF;" cx="218.46" cy="436.479" r="28.22"/>
<path style="opacity:0.1;enable-background:new    ;" d="M218.459,321.796L218.459,321.796c-39.345,0-73.619,21.687-91.537,53.756
	c26.74,16.092,58.055,25.353,91.537,25.353s64.798-9.262,91.537-25.353C292.077,343.483,257.803,321.796,218.459,321.796z"/>
<g>
	<circle style="fill:#FFD4B8;" cx="40.671" cy="202.969" r="33.17"/>
	<circle style="fill:#FFD4B8;" cx="396.25" cy="202.969" r="33.17"/>
	<circle style="fill:#FFD4B8;" cx="218.46" cy="202.729" r="177.79"/>
</g>
<path style="fill:#4A5058;" d="M188.597,227.258c-2.683,0-4.748,2.377-4.372,5.033c2.445,17.275,17.292,30.563,35.243,30.563
	c17.95,0,32.798-13.287,35.243-30.563c0.376-2.656-1.689-5.033-4.372-5.033H188.597z"/>
<path style="fill:#9B7E73;" d="M218.458,24.946c-98.189,0-177.787,79.598-177.787,177.787c21.603,0,44.174-17.985,54.439-54.519
	h91.539l5.061,37.202c0.653,4.8,6.799,6.391,9.699,2.51l29.674-39.712h110.752c10.268,36.516,32.814,54.519,54.411,54.519
	C396.246,104.544,316.648,24.946,218.458,24.946z"/>
<path style="opacity:0.1;fill:#513130;enable-background:new    ;" d="M67.019,180.289c0-3.833,0.135-7.633,0.374-11.405h325.621
	c-1.786-9.263-4.281-18.273-7.444-26.964H71.181c7.187-32.655,23.346-61.945,45.768-85.15
	c-46.102,32.122-76.277,85.514-76.277,145.963c0,98.189,79.598,177.787,177.787,177.787c50.198,0,95.53-20.811,127.858-54.267
	c-28.783,20.055-63.77,31.824-101.51,31.824C146.617,358.077,67.019,278.478,67.019,180.289z"/>
<path style="fill:#76C9D2;" d="M397.272,146.928C373.525,70.756,302.45,15.461,218.458,15.461S63.392,70.756,39.645,146.928
	c-1.359,4.358,1.92,8.785,6.486,8.785h344.656C395.352,155.713,398.63,151.286,397.272,146.928z M176.937,128.127
	c0-22.932,18.59-41.522,41.521-41.522c22.932,0,41.521,18.59,41.521,41.522H176.937z"/>
<path style="opacity:0.1;enable-background:new    ;" d="M218.458,15.461c-2.438,0-4.864,0.051-7.28,0.144v71.65
	c2.365-0.418,4.795-0.649,7.28-0.649s4.915,0.231,7.281,0.649v-71.65C223.323,15.513,220.897,15.461,218.458,15.461z"/>
<path style="opacity:0.1;enable-background:new    ;" d="M231.548,15.921c-4.325-0.299-8.689-0.46-13.09-0.46
	c-83.992,0-155.066,55.295-178.813,131.467c-1.359,4.358,1.92,8.785,6.486,8.785h26.18c-4.565,0-7.844-4.427-6.485-8.785
	C88.327,74.747,153.33,21.322,231.548,15.921z"/>
<rect x="176.94" y="128.129" style="opacity:0.2;enable-background:new    ;" width="96.69" height="27.586"/>
<path style="fill:#FFFFFF;" d="M261.045,128.127h25.172c2.003,0,3.627,1.624,3.627,3.627v20.332c0,2.003-1.624,3.627-3.627,3.627
	h-25.172c-2.003,0-3.627-1.624-3.627-3.627v-20.332C257.418,129.751,259.042,128.127,261.045,128.127z"/>
<path d="M128.307,177.753c-4.142,0-7.5,3.358-7.5,7.5v17.712c0,4.142,3.358,7.5,7.5,7.5s7.5-3.358,7.5-7.5v-17.712
	C135.807,181.111,132.449,177.753,128.307,177.753z M483.564,106.339h-95.889c-13.26-23.166-31.265-43.675-52.728-59.717
	C301.105,21.33,260.824,7.961,218.458,7.961S135.811,21.33,101.97,46.623c-32.714,24.45-57.391,59.279-69.485,98.073
	c-1.363,4.373-0.586,8.999,2.132,12.692c0.944,1.283,2.098,2.373,3.383,3.262c-0.137,0.589-0.259,1.182-0.39,1.772
	C16.609,163.994,0,181.571,0,202.966c0,21.427,16.659,39.025,37.704,40.551c11.503,51.01,44.102,94.117,88.117,119.634
	c-5.983,8.743-10.671,18.29-13.972,28.304c-24.823,17.797-39.569,46.452-39.569,77.174v20.217c0,8.376,6.815,15.191,15.191,15.191
	h176.563c4.143,0,7.5-3.358,7.5-7.5s-3.357-7.5-7.5-7.5H121.166v-62.449c0-9.534,1.354-18.816,3.973-27.683
	c0.148-0.383,0.263-0.776,0.346-1.176c3.028-9.787,7.636-19.041,13.715-27.54c24.043,11.426,50.915,17.831,79.258,17.831
	s55.215-6.406,79.259-17.832c6.08,8.501,10.688,17.756,13.715,27.544c0.083,0.397,0.197,0.787,0.344,1.167
	c2.619,8.868,3.974,18.153,3.974,27.688v62.449h-18.368c-4.143,0-7.5,3.358-7.5,7.5s3.358,7.5,7.5,7.5h52.064
	c8.377,0,15.191-6.814,15.191-15.191v-20.216c0-30.722-14.746-59.377-39.57-77.174c-3.301-10.015-7.989-19.561-13.972-28.304
	c44.016-25.517,76.615-68.624,88.118-119.634c21.044-1.527,37.704-19.124,37.704-40.551c0-19.483-13.774-35.803-32.093-39.753
	h78.739c15.68,0,28.436-12.757,28.436-28.437C512,119.096,499.243,106.339,483.564,106.339z M15,202.966
	c0-12.142,8.476-22.335,19.821-24.991c-1.097,8.187-1.649,16.459-1.649,24.758c0,8.561,0.597,16.985,1.726,25.241
	C23.515,225.347,15,215.136,15,202.966z M106.166,489.037H87.472c-0.105,0-0.191-0.085-0.191-0.191v-12.717h18.886L106.166,489.037
	L106.166,489.037z M106.166,426.588v34.541H87.631c1.556-16.656,8.264-32.253,19.015-44.729
	C106.335,419.78,106.166,423.178,106.166,426.588z M349.637,488.846c0,0.105-0.086,0.191-0.191,0.191H330.75v-12.908h18.887V488.846
	z M349.286,461.129H330.75v-34.541c0-3.41-0.168-6.808-0.479-10.188C341.022,428.875,347.73,444.473,349.286,461.129z
	 M218.458,373.02c-91.595,0-166.519-72.695-170.137-163.419c20.735-3.383,39.032-20.404,49.579-46.388h83.22l3.158,23.214
	c0.71,5.217,4.463,9.441,9.56,10.76c1.084,0.281,2.178,0.417,3.259,0.417c4.005,0,7.838-1.868,10.319-5.189l21.821-29.202h109.809
	c10.549,25.982,28.835,43.002,49.549,46.387C384.978,300.324,310.055,373.02,218.458,373.02z M48.403,194.289
	c0.516-10.49,1.97-20.896,4.39-31.076h28.709C73.385,179.959,61.504,191.11,48.403,194.289z M249.918,135.627v12.586h-65.481
	v-12.586H249.918z M185.27,120.627c3.425-15.163,17.005-26.521,33.188-26.521s29.763,11.358,33.188,26.521
	C251.646,120.627,185.27,120.627,185.27,120.627z M210.513,163.213l-12.058,16.138l-2.196-16.138H210.513z M264.918,148.213v-12.586
	h17.427v12.586H264.918z M355.446,163.213h28.678c2.42,10.18,3.874,20.585,4.39,31.074
	C375.431,191.104,363.56,179.955,355.446,163.213z M297.345,148.213v-16.459c0-6.135-4.991-11.127-11.127-11.127h-19.312
	c-3.621-23.483-23.967-41.521-48.447-41.521c-27.03,0-49.021,21.991-49.021,49.021v20.086H47.103
	c11.266-35.419,33.911-67.202,63.846-89.576c31.229-23.339,68.405-35.676,107.509-35.676s76.28,12.337,107.508,35.676
	c29.936,22.374,52.58,54.156,63.847,89.576H297.345z M421.917,202.966c0,12.17-8.514,22.381-19.897,25.008
	c1.13-8.256,1.727-16.68,1.727-25.241c0-8.299-0.552-16.57-1.649-24.758C413.441,180.631,421.917,190.824,421.917,202.966z
	 M483.564,148.213h-78.505c-0.064-1.176-0.264-2.355-0.626-3.518c-2.485-7.973-5.511-15.774-9.02-23.356h88.151
	c7.409,0,13.436,6.028,13.436,13.437C497,142.185,490.973,148.213,483.564,148.213z M250.339,219.758h-61.742
	c-3.453,0-6.732,1.496-8.996,4.104c-2.265,2.607-3.286,6.063-2.802,9.481c2.986,21.1,21.33,37.011,42.669,37.011
	s39.683-15.912,42.669-37.011c0.483-3.418-0.538-6.874-2.802-9.481C257.07,221.254,253.791,219.758,250.339,219.758z
	 M219.468,255.354c-12.698,0-23.769-8.636-27.083-20.596h54.167C243.236,246.718,232.166,255.354,219.468,255.354z M308.61,177.753
	c-4.143,0-7.5,3.358-7.5,7.5v17.712c0,4.142,3.357,7.5,7.5,7.5c4.142,0,7.5-3.358,7.5-7.5v-17.712
	C316.11,181.111,312.753,177.753,308.61,177.753z"/>
<g>
</g>
<g>
</g>
<g>
</g>
<g>
</g>
<g>
</g>
<g>
</g>
<g>
</g>
<g>
</g>
<g>
</g>
<g>
</g>
<g>
</g>
<g>
</g>
<g>
</g>
<g>
</g>
<g>
</g>
</svg>
