<?xml version="1.0" encoding="iso-8859-1"?>
<!-- Generator: Adobe Illustrator 19.0.0, SVG Export Plug-In . SVG Version: 6.00 Build 0)  -->
<svg xmlns="http://www.w3.org/2000/svg" xmlns:xlink="http://www.w3.org/1999/xlink" version="1.1" id="Layer_1" x="0px" y="0px" viewBox="0 0 512.043 512.043" style="enable-background:new 0 0 512.043 512.043;" xml:space="preserve" width="512px" height="512px">
<g>
	<g>
		<path d="M328.896,227.755l-9.749-17.707c-2.859-5.184-9.387-7.019-14.485-4.203c-5.163,2.837-7.04,9.323-4.181,14.485    l9.749,17.707c1.941,3.541,5.589,5.525,9.344,5.525c1.749,0,3.52-0.427,5.141-1.323    C329.877,239.403,331.755,232.917,328.896,227.755z" fill="#006DF0"/>
	</g>
</g>
<g>
	<g>
		<path d="M207.381,205.845c-5.141-2.837-11.648-0.981-14.485,4.203l-9.749,17.707c-2.859,5.141-0.981,11.648,4.181,14.485    c1.621,0.896,3.392,1.323,5.141,1.323c3.755,0,7.403-1.984,9.344-5.525l9.749-17.707    C214.421,215.189,212.544,208.683,207.381,205.845z" fill="#006DF0"/>
	</g>
</g>
<g>
	<g>
		<path d="M154.496,321.344c0-3.755-2.005-7.403-5.525-9.344c-3.328-1.835-7.211-1.515-10.347,0.256    c-3.136-1.749-6.997-2.048-10.325-0.192c-4.757,2.645-6.528,8.405-4.501,13.333c-4.693,2.539-6.933,8.107-4.907,13.205    c2.176,5.483,8.384,8.149,13.845,5.952l1.984-0.789l1.216,1.771c2.069,3.008,5.397,4.629,8.789,4.629    c2.091,0,4.181-0.597,6.037-1.92c3.029-2.069,4.437-5.44,4.437-8.853c2.837-1.92,4.821-5.013,4.821-8.704    C160.021,326.677,157.781,323.157,154.496,321.344z" fill="#006DF0"/>
	</g>
</g>
<g>
	<g>
		<path d="M265.728,320.043h-19.392c-5.888,0-10.667,4.779-10.667,10.667s4.779,10.667,10.667,10.667h19.392    c5.888,0,10.667-4.779,10.667-10.667S271.616,320.043,265.728,320.043z" fill="#006DF0"/>
	</g>
</g>
<g>
	<g>
		<path d="M103.915,344.619c-2.176-5.483-8.384-8.149-13.845-5.952l-17.365,6.955c-5.483,2.197-8.128,8.405-5.931,13.867    c1.664,4.16,5.675,6.699,9.899,6.699c1.301,0,2.667-0.235,3.947-0.747l17.365-6.955    C103.467,356.288,106.091,350.101,103.915,344.619z" fill="#006DF0"/>
	</g>
</g>
<g>
	<g>
		<path d="M232.448,448.277l-13.163-19.136c-3.349-4.864-10.005-6.059-14.827-2.752c-4.864,3.328-6.08,9.984-2.752,14.827    l13.163,19.136c2.091,3.008,5.419,4.629,8.789,4.629c2.091,0,4.224-0.597,6.037-1.877    C234.56,459.776,235.776,453.12,232.448,448.277z" fill="#006DF0"/>
	</g>
</g>
<g>
	<g>
		<path d="M307.563,426.389c-4.843-3.328-11.499-2.091-14.827,2.752l-13.141,19.136c-3.328,4.843-2.112,11.499,2.752,14.827    c1.856,1.28,3.947,1.877,6.037,1.877c3.392,0,6.72-1.621,8.789-4.629l13.141-19.136    C313.643,436.373,312.405,429.717,307.563,426.389z" fill="#006DF0"/>
	</g>
</g>
<g>
	<g>
		<path d="M388.224,325.44c2.069-4.928,0.32-10.709-4.48-13.376c-3.371-1.877-7.232-1.557-10.368,0.192    c-3.136-1.749-6.997-2.069-10.304-0.235c-3.52,1.941-5.525,5.589-5.525,9.344c-3.307,1.813-5.525,5.333-5.525,9.344    c0,3.691,1.984,6.784,4.821,8.683c-0.021,3.413,1.387,6.805,4.437,8.896c1.856,1.28,3.947,1.877,6.037,1.877    c3.371,0,6.72-1.621,8.789-4.587l1.216-1.771l1.984,0.789c5.461,2.197,11.648-0.491,13.845-5.952    C395.2,333.568,392.939,327.979,388.224,325.44z" fill="#006DF0"/>
	</g>
</g>
<g>
	<g>
		<path d="M439.317,345.6l-17.365-6.955c-5.419-2.176-11.648,0.469-13.845,5.952c-2.197,5.461,0.448,11.669,5.931,13.867    l17.365,6.955c1.301,0.533,2.645,0.768,3.968,0.768c4.224,0,8.235-2.539,9.877-6.72C447.445,354.005,444.8,347.797,439.317,345.6z    " fill="#006DF0"/>
	</g>
</g>
<g>
	<g>
		<path d="M256.021,51.243c-5.888,0-10.667,4.779-10.667,10.667v14.933c0,5.888,4.779,10.667,10.667,10.667    c5.888,0,10.667-4.779,10.667-10.667V61.909C266.688,56.021,261.909,51.243,256.021,51.243z" fill="#006DF0"/>
	</g>
</g>
<g>
	<g>
		<path d="M455.957,182.037c-5.141-2.88-11.648-1.045-14.528,4.139l-12.032,21.675c-2.859,5.163-1.003,11.648,4.139,14.507    c1.643,0.917,3.413,1.344,5.184,1.344c3.733,0,7.381-1.963,9.344-5.483l12.032-21.675    C462.955,191.381,461.099,184.896,455.957,182.037z" fill="#006DF0"/>
	</g>
</g>
<g>
	<g>
		<path d="M117.291,130.581c-0.555-5.867-6.187-10.261-11.627-9.6l-21.355,2.027c-5.867,0.555-10.155,5.76-9.621,11.627    c0.533,5.525,5.163,9.664,10.603,9.664c0.363,0,0.683,0,1.024-0.064l21.355-2.027    C113.536,141.653,117.824,136.448,117.291,130.581z" fill="#006DF0"/>
	</g>
</g>
<g>
	<g>
		<path d="M299.712,110.827l-21.355-2.027c-4.651-0.619-9.237,2.645-10.88,7.253l-0.789-1.408v-7.936    c0-5.888-4.779-10.667-10.667-10.667c-5.888,0-10.667,4.779-10.667,10.667v7.957l-0.747,1.365    c-1.557-4.629-5.909-7.893-10.944-7.253l-21.333,2.027c-5.845,0.555-10.133,5.76-9.6,11.627c0.533,5.525,5.163,9.664,10.603,9.664    c0.363,0,0.683,0,1.045-0.064l21.333-2.027c1.813-0.171,3.371-0.896,4.8-1.835c0.448,3.221,2.176,6.229,5.227,7.893    c3.285,1.813,7.168,1.728,10.283,0c1.579,0.875,3.349,1.323,5.141,1.323c1.749,0,3.52-0.427,5.163-1.323    c3.051-1.685,4.779-4.672,5.227-7.872c1.408,0.939,2.987,1.664,4.8,1.835l21.355,2.027c0.341,0.043,0.661,0.043,1.024,0.043    c5.44,0,10.069-4.117,10.603-9.643C309.888,116.587,305.579,111.381,299.712,110.827z" fill="#006DF0"/>
	</g>
</g>
<g>
	<g>
		<path d="M427.755,123.029l-21.333-2.027c-5.739-0.619-11.072,3.733-11.648,9.6c-0.555,5.867,3.755,11.072,9.6,11.627l21.333,2.027    c0.363,0.043,0.683,0.043,1.045,0.043c5.419,0,10.069-4.139,10.603-9.643C437.931,128.789,433.6,123.584,427.755,123.029z" fill="#006DF0"/>
	</g>
</g>
<g>
	<g>
		<path d="M82.645,207.851l-12.032-21.675c-2.901-5.163-9.429-6.997-14.528-4.139c-5.141,2.88-6.997,9.365-4.139,14.507    l12.032,21.675c1.963,3.499,5.611,5.483,9.344,5.483c1.771,0,3.541-0.427,5.184-1.344    C83.648,219.477,85.504,212.992,82.645,207.851z" fill="#006DF0"/>
	</g>
</g>
<g>
	<g>
		<path d="M490.453,137.813c0-0.043-0.021-0.085-0.043-0.149c-0.107-0.981-0.149-1.963-0.533-2.944    c-0.064-0.171-0.192-0.256-0.277-0.405c-0.085-0.171-0.043-0.384-0.128-0.576c-0.043-0.085-0.128-0.107-0.171-0.192    c-0.213-0.384-0.576-0.619-0.811-0.981c-0.576-0.811-1.216-1.536-1.963-2.133c-0.32-0.256-0.576-0.533-0.917-0.747    c-0.107-0.064-0.171-0.213-0.277-0.277l-224-128c-3.285-1.877-7.296-1.877-10.581,0l-224,128    c-0.128,0.107-0.171,0.235-0.277,0.299c-0.363,0.213-0.64,0.512-0.981,0.789c-0.789,0.619-1.429,1.344-2.027,2.176    c-0.213,0.32-0.533,0.533-0.725,0.853c-0.043,0.107-0.128,0.128-0.171,0.213c-0.085,0.149-0.043,0.341-0.128,0.512    s-0.235,0.299-0.32,0.491c-0.469,1.173-0.619,2.389-0.661,3.584c0,0.128-0.107,0.256-0.107,0.384v0.085c0,0.021,0,0.043,0,0.064    v0.021c0,0.021,0,0.021,0,0.043v234.24c0,0.021,0,0.021,0,0.043v0.021c0,0.021,0,0.064,0,0.085v0.064    c0,0.128,0.107,0.256,0.107,0.384c0.043,1.195,0.192,2.411,0.661,3.584c0.064,0.149,0.235,0.213,0.299,0.363    c0.085,0.213,0.043,0.448,0.149,0.64c0.043,0.085,0.128,0.107,0.171,0.192c0.277,0.491,0.768,0.811,1.131,1.259    c0.789,0.981,1.557,1.941,2.603,2.603c0.107,0.064,0.149,0.192,0.235,0.235l224,128c0.064,0.021,0.128,0.021,0.171,0.043    c1.579,0.853,3.307,1.365,5.141,1.365c1.835,0,3.563-0.512,5.12-1.365c0.064-0.021,0.128-0.021,0.171-0.043l224-128    c0.107-0.064,0.149-0.192,0.256-0.256c0.085-0.064,0.213-0.043,0.277-0.107c0.021-0.021,0.043-0.021,0.064-0.021    c0.853-0.576,1.387-1.472,2.048-2.261c0.427-0.512,1.003-0.896,1.323-1.472c0.043-0.064,0.107-0.107,0.149-0.171    c0.107-0.213,0.064-0.448,0.171-0.661c0.064-0.149,0.235-0.213,0.277-0.363c0.427-1.067,0.533-2.176,0.597-3.264    c0.043-0.235,0.213-0.427,0.213-0.683V138.88c0-0.021,0-0.043,0-0.064v-0.107C490.688,138.389,490.475,138.133,490.453,137.813z     M455.509,137.003l-78.229,31.296l-21.056-30.635l5.461,0.512c0.363,0.043,0.683,0.043,1.045,0.043    c5.419,0,10.069-4.139,10.603-9.643c0.555-5.867-3.755-11.072-9.6-11.627l-21.333-2.027c-0.576-0.064-1.131,0.128-1.707,0.171    L291.2,43.115L455.509,137.003z M256.021,42.709c2.752,0,5.227-1.109,7.104-2.837l89.963,130.837h-55.531l-7.552-13.76    c-2.88-5.163-9.323-6.997-14.507-4.203c-5.141,2.837-7.04,9.323-4.203,14.485l1.899,3.477h-34.304l1.899-3.456    c2.837-5.163,0.939-11.648-4.203-14.485c-5.163-2.816-11.627-0.981-14.507,4.203l-7.552,13.739h-55.573l89.963-130.837    C250.795,41.6,253.269,42.709,256.021,42.709z M220.757,43.136l-49.451,71.936c-0.555-0.043-1.088-0.235-1.664-0.171    l-21.333,2.048c-5.845,0.555-10.155,5.76-9.6,11.627c0.533,5.504,5.184,9.643,10.603,9.643c0.363,0,0.683-0.021,1.045-0.043    l5.44-0.512l-21.077,30.635l-78.229-31.296L220.757,43.136z M42.688,157.035c0.768-0.469,1.195-1.216,1.792-1.856l78.976,31.595    L42.688,332.181V157.035z M50.091,362.837l47.125-84.821l2.901,5.205c1.963,3.499,5.611,5.483,9.344,5.483    c1.771,0,3.541-0.427,5.184-1.344c5.141-2.88,6.997-9.365,4.139-14.507l-9.344-16.832l29.227-52.608l30.336,55.147    c-2.155,0.896-4.075,2.347-5.312,4.544l-9.728,17.707c-2.837,5.163-0.939,11.648,4.203,14.485    c1.643,0.896,3.392,1.323,5.141,1.323c3.755,0,7.403-1.984,9.365-5.525l7.104-12.928l22.997,41.877H188.16    c-5.888,0-10.667,4.779-10.667,10.667s4.779,10.667,10.667,10.667h19.392c2.219,0,4.16-0.832,5.867-2.005l23.552,42.816    l-53.44-5.077l-3.691-5.376c-3.307-4.864-9.941-6.08-14.827-2.752c-2.155,1.472-3.456,3.627-4.096,5.973L51.179,364.501    C50.859,363.904,50.496,363.349,50.091,362.837z M245.355,482.987l-165.12-94.336l91.264,8.619l3.904,5.675    c2.069,3.008,5.397,4.629,8.789,4.629c2.069,0,4.181-0.597,6.037-1.877c2.24-1.536,3.627-3.819,4.224-6.272l50.901,4.8V482.987z     M256.021,372.565l-99.285-180.523h198.571L256.021,372.565z M266.688,482.987v-78.571l50.944-4.843    c0.619,2.389,1.963,4.608,4.16,6.144c1.835,1.28,3.925,1.877,6.037,1.877c3.371,0,6.741-1.621,8.789-4.629l3.819-5.547    l91.285-8.704L266.688,482.987z M460.821,364.523l-109.653,10.539c-0.64-2.368-1.963-4.565-4.139-6.08    c-4.757-3.328-11.499-2.133-14.827,2.752l-3.797,5.504l-53.397,5.141l23.637-42.987c1.728,1.152,3.648,1.984,5.867,1.984h19.392    c5.888,0,10.667-4.779,10.667-10.667s-4.779-10.667-10.667-10.667h-14.592l23.019-41.835l7.104,12.907    c1.941,3.52,5.589,5.525,9.344,5.525c1.749,0,3.499-0.427,5.163-1.323c5.141-2.837,7.04-9.323,4.203-14.485l-9.728-17.707    c-1.216-2.197-3.157-3.627-5.291-4.523l30.315-55.125l29.184,52.565l-9.344,16.811c-2.859,5.163-1.003,11.648,4.139,14.507    c1.643,0.917,3.413,1.344,5.184,1.344c3.733,0,7.381-1.984,9.344-5.483l2.88-5.205l47.104,84.8    C461.504,363.328,461.141,363.904,460.821,364.523z M469.355,332.224l-80.811-145.451l78.997-31.595    c0.619,0.619,1.024,1.387,1.813,1.877V332.224z" fill="#006DF0"/>
	</g>
</g>
<g>
</g>
<g>
</g>
<g>
</g>
<g>
</g>
<g>
</g>
<g>
</g>
<g>
</g>
<g>
</g>
<g>
</g>
<g>
</g>
<g>
</g>
<g>
</g>
<g>
</g>
<g>
</g>
<g>
</g>
</svg>
