<?xml version="1.0" encoding="iso-8859-1"?>
<!-- Generator: Adobe Illustrator 19.0.0, SVG Export Plug-In . SVG Version: 6.00 Build 0)  -->
<svg xmlns="http://www.w3.org/2000/svg" xmlns:xlink="http://www.w3.org/1999/xlink" version="1.1" id="Layer_1" x="0px" y="0px" viewBox="0 0 512 512" style="enable-background:new 0 0 512 512;" xml:space="preserve" width="512px" height="512px">
<g>
	<g>
		<path d="M212.456,245.781c-2.645-5.291-9.024-7.381-14.315-4.779l-21.781,10.901c-5.269,2.645-7.403,9.045-4.779,14.315    c1.877,3.733,5.632,5.888,9.536,5.888c1.6,0,3.243-0.363,4.779-1.109l21.781-10.901    C212.946,257.451,215.08,251.051,212.456,245.781z" fill="#006DF0"/>
	</g>
</g>
<g>
	<g>
		<path d="M270.269,219.221l-3.605-1.813v-4.075c0-5.888-4.779-10.667-10.667-10.667s-10.667,4.779-10.667,10.667v4.053    l-3.669,1.835c-5.269,2.645-7.403,9.045-4.779,14.315c1.899,3.776,5.696,5.824,9.643,5.803c1.728,3.52,5.291,5.995,9.472,5.995    c4.16,0,7.659-2.453,9.429-5.909c0.043,0,0.085,0.021,0.107,0.021c3.904,0,7.68-2.155,9.515-5.909    C277.672,228.267,275.538,221.867,270.269,219.221z" fill="#006DF0"/>
	</g>
</g>
<g>
	<g>
		<path d="M335.677,251.883l-21.781-10.901c-5.269-2.581-11.669-0.491-14.315,4.779c-2.624,5.269-0.491,11.669,4.779,14.315    l21.781,10.901c1.557,0.768,3.179,1.131,4.779,1.131c3.883,0,7.659-2.155,9.536-5.909    C343.08,260.928,340.946,254.528,335.677,251.883z" fill="#006DF0"/>
	</g>
</g>
<g>
	<g>
		<path d="M394.6,288.384c0.021-0.384-0.128-0.747-0.149-1.131c-0.085-1.109-0.256-2.197-0.683-3.221    c-0.064-0.149-0.021-0.341-0.085-0.491L265.832,6.507l-0.149-0.299c-0.043-0.107-0.171-0.128-0.235-0.235    C263.698,2.475,260.178,0,255.997,0s-7.701,2.475-9.451,5.973c-0.043,0.107-0.171,0.128-0.213,0.235l-0.149,0.299c0,0,0,0,0,0.021    L118.312,283.541c-0.085,0.171-0.021,0.341-0.085,0.512c-0.405,1.003-0.576,2.069-0.661,3.157    c-0.021,0.405-0.171,0.768-0.149,1.173c0,0.107-0.043,0.213-0.043,0.32c0,0.085,0.064,0.171,0.064,0.277    c0.107,1.28,0.405,2.56,1.024,3.797c0.064,0.128,0.192,0.171,0.256,0.277c0.064,0.128,0.043,0.277,0.128,0.427l128,213.333    c0.171,0.277,0.469,0.384,0.64,0.64c0.725,1.003,1.557,1.813,2.56,2.496c0.405,0.277,0.747,0.576,1.173,0.789    c1.472,0.747,3.029,1.259,4.779,1.259c1.728,0,3.307-0.512,4.757-1.259c0.427-0.213,0.768-0.512,1.173-0.789    c1.003-0.704,1.835-1.515,2.56-2.496c0.192-0.256,0.491-0.363,0.661-0.64l128-213.333c0.085-0.128,0.043-0.299,0.128-0.448    c0.064-0.107,0.192-0.171,0.256-0.277c0.597-1.195,0.875-2.453,1.003-3.712c0.021-0.128,0.085-0.235,0.085-0.341    C394.642,288.597,394.6,288.491,394.6,288.384z M256.317,480.064c-0.107,0-0.213-0.064-0.32-0.064s-0.213,0.064-0.32,0.064    L146.834,298.667h98.496v5.824c0,5.888,4.779,10.667,10.667,10.667s10.667-4.779,10.667-10.667v-5.824h98.496L256.317,480.064z     M365.778,277.333h-99.904c-1.557-3.968-5.376-6.784-9.877-6.784s-8.32,2.816-9.877,6.784h-99.904    c-0.299-0.448-0.619-0.875-0.981-1.237L255.997,36.117L366.76,276.075C366.397,276.459,366.077,276.885,365.778,277.333z" fill="#006DF0"/>
	</g>
</g>
<g>
	<g>
		<path d="M255.997,58.667c-5.888,0-10.667,4.779-10.667,10.667v24c0,5.888,4.779,10.667,10.667,10.667s10.667-4.779,10.667-10.667    v-24C266.664,63.445,261.885,58.667,255.997,58.667z" fill="#006DF0"/>
	</g>
</g>
<g>
	<g>
		<path d="M255.997,130.667c-5.888,0-10.667,4.779-10.667,10.667v24c0,5.888,4.779,10.667,10.667,10.667s10.667-4.779,10.667-10.667    v-24C266.664,135.445,261.885,130.667,255.997,130.667z" fill="#006DF0"/>
	</g>
</g>
<g>
	<g>
		<path d="M255.997,410.176c-5.888,0-10.667,4.779-10.667,10.667v23.275c0,5.888,4.779,10.667,10.667,10.667    s10.667-4.757,10.667-10.667v-23.275C266.664,414.955,261.885,410.176,255.997,410.176z" fill="#006DF0"/>
	</g>
</g>
<g>
	<g>
		<path d="M255.997,340.352c-5.888,0-10.667,4.779-10.667,10.667v23.275c0,5.888,4.779,10.667,10.667,10.667    s10.667-4.757,10.667-10.667v-23.275C266.664,345.131,261.885,340.352,255.997,340.352z" fill="#006DF0"/>
	</g>
</g>
<g>
</g>
<g>
</g>
<g>
</g>
<g>
</g>
<g>
</g>
<g>
</g>
<g>
</g>
<g>
</g>
<g>
</g>
<g>
</g>
<g>
</g>
<g>
</g>
<g>
</g>
<g>
</g>
<g>
</g>
</svg>
