<?xml version="1.0" encoding="iso-8859-1"?>
<!-- Generator: Adobe Illustrator 19.0.0, SVG Export Plug-In . SVG Version: 6.00 Build 0)  -->
<svg xmlns="http://www.w3.org/2000/svg" xmlns:xlink="http://www.w3.org/1999/xlink" version="1.1" id="Layer_1" x="0px" y="0px" viewBox="0 0 511.954 511.954" style="enable-background:new 0 0 511.954 511.954;" xml:space="preserve" width="512px" height="512px">
<g>
	<g>
		<path d="M226.553,130.77c-5.931-0.811-11.243,3.157-12.139,8.96l-3.605,24.021c-0.875,5.824,3.136,11.264,8.96,12.139    c0.555,0.064,1.088,0.107,1.6,0.107c5.184,0,9.728-3.776,10.539-9.067l3.605-24.021    C236.387,137.085,232.377,131.645,226.553,130.77z" fill="#FFFFFF"/>
	</g>
</g>
<g>
	<g>
		<path d="M224.803,213.416c0-5.205-3.797-9.749-9.088-10.56c-5.867-0.725-11.243,3.136-12.139,8.96l-0.789,5.333l-4.736,2.603    c-5.141,2.859-7.019,9.344-4.181,14.507c2.368,4.288,7.189,6.315,11.733,5.248c1.877,3.371,5.461,5.504,9.344,5.504    c0.789,0,1.6-0.085,2.389-0.299c4.971-1.152,8.107-5.632,8.064-10.539c4.8-1.024,8.491-5.099,8.491-10.197    C233.891,218.621,229.945,214.184,224.803,213.416z" fill="#FFFFFF"/>
	</g>
</g>
<g>
	<g>
		<path d="M359.225,213.288h-22.677c-5.888,0-10.667,4.779-10.667,10.667s4.779,10.667,10.667,10.667h22.677    c5.888,0,10.667-4.779,10.667-10.667S365.113,213.288,359.225,213.288z" fill="#FFFFFF"/>
	</g>
</g>
<g>
	<g>
		<path d="M173.667,245.416c-2.859-5.141-9.344-7.019-14.507-4.181l-19.456,10.731c-5.141,2.859-7.019,9.344-4.181,14.507    c1.941,3.52,5.589,5.504,9.344,5.504c1.749,0,3.52-0.427,5.163-1.323l19.456-10.731    C174.627,257.064,176.526,250.557,173.667,245.416z" fill="#FFFFFF"/>
	</g>
</g>
<g>
	<g>
		<path d="M273.806,441.853l-5.376-23.317c-1.344-5.739-7.061-9.323-12.8-8c-5.739,1.344-9.323,7.061-8,12.8l5.376,23.317    c1.152,4.949,5.525,8.277,10.389,8.277c0.789,0,1.6-0.085,2.411-0.277C271.545,453.33,275.129,447.592,273.806,441.853z" fill="#FFFFFF"/>
	</g>
</g>
<g>
	<g>
		<path d="M257.657,371.88l-5.376-23.317c-1.344-5.76-7.04-9.323-12.8-8c-5.739,1.323-9.323,7.061-8,12.8l5.376,23.317    c1.152,4.949,5.525,8.277,10.389,8.277c0.789,0,1.6-0.085,2.411-0.277C255.395,383.357,258.979,377.618,257.657,371.88z" fill="#FFFFFF"/>
	</g>
</g>
<g>
	<g>
		<path d="M425.891,223.976c0-0.469-0.213-0.875-0.277-1.344c-0.021-0.107-0.021-0.213-0.043-0.32    c-0.064-0.427-0.043-0.875-0.171-1.301c-0.085-0.277-0.171-0.555-0.277-0.832c-0.213-0.576-0.576-1.045-0.896-1.579    c-0.128-0.213-0.213-0.427-0.363-0.64c-0.149-0.213-0.171-0.469-0.341-0.661l-0.128-0.171c-0.043-0.064-0.085-0.128-0.149-0.171    L252.921,4.029c-0.107-0.128-0.213-0.256-0.299-0.363c0-0.021,0-0.021,0-0.021c-0.405-0.469-0.939-0.747-1.429-1.109    c-0.469-0.384-0.875-0.811-1.408-1.109c-0.832-0.469-1.728-0.725-2.645-0.96c-0.341-0.085-0.64-0.299-1.003-0.363    c-0.064,0-0.107,0.021-0.149,0c-2.667-0.363-5.44,0.213-7.765,1.941c-0.299,0.235-0.597,0.491-0.896,0.747    c-0.021,0.021-0.021,0.021-0.021,0.021c-0.469,0.448-0.747,1.003-1.131,1.515c-0.299,0.384-0.619,0.704-0.853,1.131    c-0.064,0.128-0.213,0.235-0.277,0.363L87.225,282.92c-0.021,0.021,0,0.043-0.021,0.064c-0.192,0.363-0.235,0.768-0.384,1.131    c-0.256,0.619-0.427,1.237-0.533,1.899c-0.107,0.597-0.192,1.152-0.213,1.749c0,0.256-0.021,0.491,0,0.747    c0.021,0.512,0.149,1.003,0.256,1.493c0.149,0.725,0.363,1.387,0.661,2.069c0.149,0.341,0.149,0.704,0.32,1.024    c0.043,0.064,0.107,0.085,0.149,0.149c0.021,0.064,0.021,0.128,0.043,0.171c0.128,0.192,0.341,0.277,0.469,0.469    c0.213,0.299,0.277,0.64,0.512,0.917L268.43,508.136c0,0.021,0.021,0.021,0.043,0.021c0.171,0.192,0.427,0.299,0.619,0.491    c0.64,0.64,1.344,1.195,2.112,1.664c0.235,0.149,0.384,0.363,0.619,0.491c0.043,0.021,0.085,0.021,0.128,0.043    c0.192,0.085,0.384,0.128,0.576,0.213c1.28,0.533,2.624,0.896,4.053,0.896c0.789,0,1.6-0.085,2.411-0.277    c0.043,0,0.064-0.043,0.107-0.043s0.085,0,0.128-0.021c0.128-0.021,0.192-0.149,0.32-0.192c0.619-0.192,1.173-0.491,1.728-0.789    c0.363-0.171,0.725-0.277,1.088-0.491c0.533-0.341,0.96-0.789,1.429-1.216c0.32-0.299,0.576-0.576,0.853-0.917    c0.448-0.555,0.896-1.067,1.237-1.685c0.064-0.128,0.213-0.171,0.277-0.299L424.825,228.69c0.064-0.107,0.043-0.235,0.085-0.341    c0.235-0.512,0.299-1.067,0.448-1.6c0.107-0.405,0.384-0.747,0.448-1.173c0.021-0.149-0.043-0.299-0.021-0.448    c-0.021-0.277,0.043-0.576,0.043-0.875C425.827,224.146,425.891,224.061,425.891,223.976z M114.638,276.861L224.803,70.354    l-3.2,21.333c-0.875,5.824,3.136,11.264,8.96,12.139c0.555,0.064,1.088,0.107,1.6,0.107c5.205,0,9.749-3.797,10.539-9.067    l3.605-24.021c0.875-5.824-3.136-11.264-8.96-12.139c-2.645-0.363-5.141,0.363-7.211,1.664l11.157-20.928l46.784,173.845h-19.541    c-5.888,0-10.667,4.779-10.667,10.667s4.779,10.667,10.667,10.667h22.677c0.875,0,1.664-0.299,2.475-0.491l11.627,43.157h-69.781    c-1.877-4.907-6.976-7.936-12.203-6.699c-3.605,0.853-6.165,3.477-7.403,6.699H115.001    C114.894,277.117,114.745,277.01,114.638,276.861z M270.457,477.48L119.587,298.621h99.264l1.856,8.085    c1.152,4.949,5.525,8.277,10.389,8.277c0.789,0,1.6-0.085,2.411-0.277c5.739-1.323,9.323-7.061,8-12.8l-0.768-3.285h65.472    L270.457,477.48z M302.627,425.298l26.176-130.923l58.923-39.275L302.627,425.298z M394.147,225.192l-68.501,45.653L268.131,57.17    l128.192,160.277c-1.451,1.813-2.432,4.011-2.432,6.507C393.891,224.402,394.083,224.765,394.147,225.192z" fill="#FFFFFF"/>
	</g>
</g>
<g>
</g>
<g>
</g>
<g>
</g>
<g>
</g>
<g>
</g>
<g>
</g>
<g>
</g>
<g>
</g>
<g>
</g>
<g>
</g>
<g>
</g>
<g>
</g>
<g>
</g>
<g>
</g>
<g>
</g>
</svg>
