<?xml version="1.0" encoding="iso-8859-1"?>
<!-- Generator: Adobe Illustrator 19.0.0, SVG Export Plug-In . SVG Version: 6.00 Build 0)  -->
<svg version="1.1" id="Layer_1" xmlns="http://www.w3.org/2000/svg" xmlns:xlink="http://www.w3.org/1999/xlink" x="0px" y="0px"
	 viewBox="0 0 512 512" style="enable-background:new 0 0 512 512;" xml:space="preserve">
<ellipse style="fill:#CEE8FA;" cx="256" cy="256" rx="95.669" ry="240.941"/>
<path style="fill:#2D527C;" d="M496.941,240.941H366.545c-1.444-60.583-11.571-117.234-28.899-160.87
	c-6.471-16.298-13.791-30.277-21.786-41.788c63.268,17.494,117.231,62.103,145.437,123.366c3.48,7.555,12.424,10.859,19.977,7.38
	c7.555-3.479,10.86-12.422,7.382-19.977c-20.192-43.859-52.281-81.035-92.8-107.508C354.259,14.366,305.897,0,256,0
	C114.842,0,0,114.842,0,256c0,8.317,6.742,15.059,15.059,15.059h130.396c1.444,60.583,11.571,117.234,28.899,160.87
	c6.481,16.324,13.813,30.321,21.825,41.842c-64.235-17.681-118.686-63.256-146.614-125.934c-3.385-7.599-12.293-11.013-19.884-7.626
	c-7.597,3.385-11.013,12.288-7.626,19.884C63.17,452.373,155,512,256,512c141.158,0,256-114.842,256-256
	C512,247.683,505.257,240.941,496.941,240.941z M196.227,38.161c-8.029,11.535-15.38,25.555-21.874,41.912
	c-17.327,43.634-27.455,100.286-28.898,160.869H30.631C37.063,143.736,105.251,63.152,196.227,38.161z M202.344,420.814
	c-15.98-40.245-25.355-92.957-26.766-149.755h94.979c8.315,0,15.059-6.742,15.059-15.059c0-8.317-6.743-15.059-15.059-15.059
	h-94.979c1.411-56.797,10.785-109.509,26.766-149.755C217.529,52.947,237.586,30.118,256,30.118s38.472,22.829,53.656,61.068
	c17.385,43.782,26.958,102.313,26.958,164.814s-9.573,121.032-26.958,164.814c-15.184,38.239-35.242,61.068-53.656,61.068
	S217.529,459.053,202.344,420.814z M315.773,473.839c8.029-11.535,15.378-25.555,21.873-41.912
	c17.327-43.636,27.455-100.286,28.899-160.87h114.822C474.937,368.264,406.749,448.848,315.773,473.839z"/>
<g>
</g>
<g>
</g>
<g>
</g>
<g>
</g>
<g>
</g>
<g>
</g>
<g>
</g>
<g>
</g>
<g>
</g>
<g>
</g>
<g>
</g>
<g>
</g>
<g>
</g>
<g>
</g>
<g>
</g>
</svg>
